<svg width="28" height="28" viewBox="0 0 28 28" fill="none" xmlns="http://www.w3.org/2000/svg">
    <g clip-path="url(#clip0_401_6750)">
        <path d="M28 14C28 21.7319 21.7319 28 14 28C6.26806 28 0 21.7319 0 14C0 14.0033 14 0.00158594 14 0C21.7319 0 28 6.26806 28 14Z" fill="#0052B4"/>
        <path d="M13.9997 0C13.999 0 13.9983 4.6875e-05 13.9977 4.6875e-05L13.9997 0Z" fill="#F0F0F0"/>
        <path d="M13.9625 14H14C14 13.9873 14 13.9752 14 13.9625C13.9875 13.975 13.975 13.9875 13.9625 14Z" fill="#F0F0F0"/>
        <path d="M14 7.30439C14 4.841 14 3.22679 14 6.10352e-05H13.9976C6.26675 0.00131885 0 6.26878 0 14H7.30434V9.88684L11.4175 14H13.9626C13.9751 13.9875 13.9876 13.9751 14.0001 13.9625C14.0001 13.0193 14.0001 12.1778 14.0001 11.4176L9.88684 7.30439H14Z" fill="#F0F0F0"/>
        <path d="M7.08283 1.82605C4.8932 3.07287 3.07287 4.8932 1.82605 7.08283V14H5.47825V5.4783V5.47825H14C14 4.32636 14 3.229 14 1.82605H7.08283Z" fill="#D80027"/>
        <path d="M13.9999 12.2783L9.02594 7.30441H7.30432C7.30432 7.30435 7.30432 7.30441 7.30432 7.30441L13.9999 14H13.9999C13.9999 14 13.9999 12.813 13.9999 12.2783Z" fill="#D80027"/>
        <path d="M8.4435 16.4348L9.21186 18.0414L10.9469 17.6403L10.1699 19.2428L11.5652 20.3493L9.82797 20.7408L9.83284 22.5217L8.4435 21.4075L7.05422 22.5217L7.05909 20.7408L5.32178 20.3493L6.71713 19.2428L5.94002 17.6403L7.6752 18.0414L8.4435 16.4348Z" fill="#F0F0F0"/>
        <path d="M20.9609 19.4783L21.3451 20.2816L22.2126 20.081L21.8241 20.8823L22.5218 21.4355L21.6531 21.6313L21.6555 22.5217L20.9609 21.9646L20.2662 22.5217L20.2686 21.6313L19.4 21.4355L20.0977 20.8823L19.7092 20.081L20.5767 20.2816L20.9609 19.4783Z" fill="#F0F0F0"/>
        <path d="M17.3869 10.9565L17.7711 11.7598L18.6386 11.5592L18.2501 12.3605L18.9478 12.9137L18.0792 13.1095L18.0815 14L17.3869 13.4428L16.6923 14L16.6947 13.1095L15.826 12.9137L16.5237 12.3605L16.1352 11.5592L17.0028 11.7598L17.3869 10.9565Z" fill="#F0F0F0"/>
        <path d="M20.9609 6.08691L21.3451 6.89027L22.2126 6.68973L21.8241 7.49096L22.5217 8.04418L21.6531 8.24002L21.6555 9.13044L20.9609 8.57334L20.2662 9.13044L20.2686 8.24002L19.4 8.04418L20.0976 7.49096L19.7092 6.68973L20.5767 6.89027L20.9609 6.08691Z" fill="#F0F0F0"/>
        <path d="M24.0826 9.73914L24.4667 10.5425L25.3343 10.3419L24.9458 11.1431L25.6435 11.6964L24.7748 11.8922L24.7772 12.7826L24.0826 12.2256L23.388 12.7826L23.3903 11.8922L22.5217 11.6964L23.2194 11.1431L22.8309 10.3419L23.6984 10.5425L24.0826 9.73914Z" fill="#F0F0F0"/>
        <path d="M21.8504 14L22.1526 14.93H23.1305L22.3393 15.5048L22.6416 16.4348L21.8504 15.86L21.0593 16.4348L21.3614 15.5048L20.5703 14.93H21.5482L21.8504 14Z" fill="#F0F0F0"/>
    </g>
    <defs>
        <clipPath id="clip0_401_6750">
            <rect width="28" height="28" fill="white"/>
        </clipPath>
    </defs>
</svg>