<svg width="28" height="28" viewBox="0 0 28 28" fill="none" xmlns="http://www.w3.org/2000/svg">
    <g clip-path="url(#clip0_401_6726)">
        <path d="M27.1292 18.8695C27.692 17.3529 28 15.7125 28 14C28 12.2875 27.692 10.6472 27.1292 9.13045L14 7.91306L0.870789 9.13045C0.308055 10.6472 0 12.2875 0 14C0 15.7125 0.308055 17.3529 0.870789 18.8695L14 20.0869L27.1292 18.8695Z" fill="#F0F0F0"/>
        <path d="M14 28C20.0194 28 25.1511 24.2007 27.1292 18.8695H0.870728C2.84888 24.2007 7.98043 28 14 28Z" fill="#D80027"/>
        <path d="M14 0C7.98043 0 2.84888 3.79925 0.870728 9.13046H27.1292C25.1511 3.79925 20.0194 0 14 0Z" fill="#D80027"/>
    </g>
    <defs>
        <clipPath id="clip0_401_6726">
            <rect width="28" height="28" fill="white"/>
        </clipPath>
    </defs>
</svg>