<svg width="28" height="28" viewBox="0 0 28 28" fill="none" xmlns="http://www.w3.org/2000/svg">
    <g clip-path="url(#clip0_62_2108)">
        <path d="M14 28C21.732 28 28 21.732 28 14C28 6.26801 21.732 0 14 0C6.26801 0 0 6.26801 0 14C0 21.732 6.26801 28 14 28Z" fill="#F0F0F0"/>
        <path d="M28 14C28 8.44953 24.7699 3.65366 20.0869 1.38916V26.6108C24.7699 24.3463 28 19.5504 28 14Z" fill="#D80027"/>
        <path d="M0 14C0 19.5504 3.23012 24.3463 7.91306 26.6108V1.38916C3.23012 3.65366 0 8.44953 0 14Z" fill="#D80027"/>
        <path d="M16.4348 15.826L18.8696 14.6086L17.6522 14V12.7826L15.2174 14L16.4348 11.5652H15.2174L14 9.73911L12.7826 11.5652H11.5652L12.7826 14L10.3478 12.7826V14L9.13049 14.6086L11.5652 15.826L10.9566 17.0434H13.3914V18.8695H14.6087V17.0434H17.0435L16.4348 15.826Z" fill="#D80027"/>
    </g>
    <defs>
        <clipPath id="clip0_62_2108">
            <rect width="28" height="28" fill="white"/>
        </clipPath>
    </defs>
</svg>
