<svg width="28" height="28" viewBox="0 0 28 28" fill="none" xmlns="http://www.w3.org/2000/svg">
    <g clip-path="url(#clip0_401_6764)">
        <path d="M14 28C21.732 28 28 21.732 28 14C28 6.26801 21.732 0 14 0C6.26801 0 0 6.26801 0 14C0 21.732 6.26801 28 14 28Z" fill="#D80027"/>
        <path d="M7.66172 8.52026L8.87031 12.239H12.7805L9.61953 14.5414L10.8281 18.2601L7.66172 15.9632L4.49531 18.2601L5.70938 14.5414L2.54297 12.239H6.45313L7.66172 8.52026Z" fill="#FFDA44"/>
        <path d="M16.5976 21.6836L15.6734 20.5461L14.3062 21.0765L15.0992 19.8461L14.1749 18.7031L15.5913 19.0804L16.3898 17.85L16.4663 19.3156L17.8882 19.6929L16.5156 20.2179L16.5976 21.6836Z" fill="#FFDA44"/>
        <path d="M18.4352 18.3476L18.8727 16.9476L17.675 16.1L19.1407 16.0781L19.5727 14.6781L20.0485 16.0672L21.5141 16.0508L20.3383 16.9258L20.8086 18.3148L19.611 17.4672L18.4352 18.3476Z" fill="#FFDA44"/>
        <path d="M20.9124 10.2758L20.2671 11.5937L21.3171 12.6164L19.8679 12.4086L19.2226 13.7211L18.971 12.2773L17.5164 12.0695L18.8179 11.3859L18.5664 9.93671L19.6164 10.9594L20.9124 10.2758Z" fill="#FFDA44"/>
        <path d="M16.6359 6.28357L16.5265 7.74373L17.8883 8.29607L16.4609 8.64607L16.357 10.1117L15.5859 8.86482L14.1586 9.21482L15.1047 8.09373L14.3281 6.85232L15.6898 7.40466L16.6359 6.28357Z" fill="#FFDA44"/>
    </g>
    <defs>
        <clipPath id="clip0_401_6764">
            <rect width="28" height="28" fill="white"/>
        </clipPath>
    </defs>
</svg>
