<svg width="28" height="28" viewBox="0 0 28 28" fill="none" xmlns="http://www.w3.org/2000/svg">
    <g clip-path="url(#clip0_401_6806)">
        <path d="M14 28C21.732 28 28 21.732 28 14C28 6.26801 21.732 0 14 0C6.26801 0 0 6.26801 0 14C0 21.732 6.26801 28 14 28Z" fill="#D80027"/>
        <path d="M15.4453 10.5912C15.1272 11.9146 14.5619 11.6622 14.2844 12.8163C12.6502 12.4234 11.6437 10.78 12.0367 9.14571C12.4294 7.51148 14.073 6.50501 15.7072 6.89794C15.1523 9.20614 15.73 9.40761 15.4453 10.5912Z" fill="#F0F0F0"/>
        <path d="M11.2048 11.5718C12.3651 12.2833 11.9503 12.7431 12.9622 13.3636C12.0834 14.7965 10.2096 15.2457 8.77665 14.3671C7.34378 13.4884 6.89442 11.6144 7.77314 10.1816C9.7969 11.4225 10.1669 10.9354 11.2048 11.5718Z" fill="#F0F0F0"/>
        <path d="M10.827 15.9082C11.8623 15.0245 12.1712 15.561 13.074 14.7905C14.1653 16.0689 14.0135 17.9899 12.7351 19.0812C11.4566 20.1725 9.53558 20.0205 8.44446 18.7422C10.2499 17.201 9.90095 16.6985 10.827 15.9082Z" fill="#F0F0F0"/>
        <path d="M14.8342 17.6075C14.3136 16.3498 14.9193 16.2216 14.4655 15.125C16.0185 14.4822 17.7987 15.2202 18.4415 16.7733C19.0842 18.3263 18.3462 20.1065 16.7931 20.7493C15.8855 18.5558 15.2998 18.7324 14.8342 17.6075Z" fill="#F0F0F0"/>
        <path d="M17.6887 14.3214C16.3317 14.4278 16.3969 13.8121 15.2137 13.9049C15.0823 12.2293 16.3343 10.7642 18.01 10.6327C19.6856 10.5015 21.1507 11.7534 21.282 13.4291C18.9153 13.6147 18.9023 14.2263 17.6887 14.3214Z" fill="#F0F0F0"/>
    </g>
    <defs>
        <clipPath id="clip0_401_6806">
            <rect width="28" height="28" fill="white"/>
        </clipPath>
    </defs>
</svg>