<svg width="28" height="28" viewBox="0 0 28 28" fill="none" xmlns="http://www.w3.org/2000/svg">
    <g clip-path="url(#clip0_401_6771)">
        <path d="M26.6108 7.91306C24.3463 3.23012 19.5504 0 14 0C8.44953 0 3.65366 3.23012 1.38916 7.91306L14 9.13046L26.6108 7.91306Z" fill="#D80027"/>
        <path d="M1.38916 20.087C3.65366 24.7699 8.44953 28 14 28C19.5504 28 24.3463 24.7699 26.6108 20.087L14 18.8696L1.38916 20.087Z" fill="#D80027"/>
        <path d="M26.6108 7.91309H1.38917C0.499188 9.75359 0 11.8185 0 14C0 16.1816 0.499188 18.2465 1.38917 20.087H26.6108C27.5009 18.2465 28 16.1816 28 14C28 11.8185 27.5009 9.75359 26.6108 7.91309Z" fill="#0052B4"/>
        <path d="M14 18.8695C16.6894 18.8695 18.8696 16.6893 18.8696 14C18.8696 11.3106 16.6894 9.13043 14 9.13043C11.3107 9.13043 9.13049 11.3106 9.13049 14C9.13049 16.6893 11.3107 18.8695 14 18.8695Z" fill="#F0F0F0"/>
    </g>
    <defs>
        <clipPath id="clip0_401_6771">
            <rect width="28" height="28" fill="white"/>
        </clipPath>
    </defs>
</svg>