<svg width="28" height="28" viewBox="0 0 28 28" fill="none" xmlns="http://www.w3.org/2000/svg">
    <g clip-path="url(#clip0_401_6785)">
        <path d="M14 28C21.732 28 28 21.732 28 14C28 6.26801 21.732 0 14 0C6.26801 0 0 6.26801 0 14C0 21.732 6.26801 28 14 28Z" fill="#F0F0F0"/>
        <path d="M27.9179 15.5217L27.9175 15.5213L27.9175 15.5217H27.9179Z" fill="#0052B4"/>
        <path d="M27.9174 15.5218C27.9174 15.5217 27.9175 15.5215 27.9175 15.5213L12.5642 0.0728149C11.8716 0.143417 11.1939 0.264495 10.5348 0.432331C4.4788 1.97425 0 14 0 14C0 14 19.5999 27.116 21.8359 25.6028C22.2833 25.3 22.7123 24.972 23.1207 24.6209L14.0216 15.5218H27.9174Z" fill="#0052B4"/>
        <path d="M24.3478 14L10.7321 0.384399C4.57669 1.85642 0 7.39332 0 14C0 21.7319 6.26806 28 14 28C16.9328 28 19.6545 27.0976 21.9039 25.5561L10.3478 14H24.3478Z" fill="#D80027"/>
        <path d="M13.3149 20.6715L11.6051 19.8673L12.5156 18.2114L10.659 18.5666L10.4237 16.6909L9.13051 18.0704L7.83732 16.6909L7.602 18.5666L5.74541 18.2113L6.6559 19.8673L4.94604 20.6715L6.6559 21.4757L5.74541 23.1316L7.60211 22.7765L7.83726 24.6521L9.13051 23.2726L10.4237 24.6521L10.659 22.7765L12.5156 23.1317L11.6051 21.4758L13.3149 20.6715Z" fill="#F0F0F0"/>
        <path d="M12.174 7.76472L10.9304 7.17984L11.5926 5.97546L10.2422 6.2338L10.0711 4.86957L9.13056 5.87292L8.18999 4.86957L8.01882 6.2338L6.66842 5.97546L7.33068 7.17984L6.08704 7.76472L9.13056 8.37351L12.174 7.76472Z" fill="#F0F0F0"/>
        <path d="M12.7827 7.76471C12.7827 9.78175 11.1475 11.4169 9.13046 11.4169C7.11343 11.4169 5.47827 9.78175 5.47827 7.76471" fill="#F0F0F0"/>
    </g>
    <defs>
        <clipPath id="clip0_401_6785">
            <rect width="28" height="28" fill="white"/>
        </clipPath>
    </defs>
</svg>