<svg width="28" height="28" viewBox="0 0 28 28" fill="none" xmlns="http://www.w3.org/2000/svg">
    <g clip-path="url(#clip0_62_2147)">
        <path d="M14 28C21.732 28 28 21.732 28 14C28 6.26801 21.732 0 14 0C6.26801 0 0 6.26801 0 14C0 21.732 6.26801 28 14 28Z" fill="#F0F0F0"/>
        <path d="M27.1292 9.13043H0.870789C0.308 10.6471 0 12.2875 0 14C0 15.7125 0.308 17.3529 0.870789 18.8695H27.1293C27.692 17.3529 28 15.7125 28 14C28 12.2875 27.692 10.6471 27.1292 9.13043Z" fill="#0052B4"/>
        <path d="M14 0C9.75678 0 5.95474 1.88803 3.38733 4.86954H24.6127C22.0453 1.88803 18.2433 0 14 0Z" fill="#D80027"/>
        <path d="M24.6128 23.1304H3.38733C5.95474 26.1119 9.75678 28 14 28C18.2433 28 22.0453 26.1119 24.6128 23.1304Z" fill="#D80027"/>
    </g>
    <defs>
        <clipPath id="clip0_62_2147">
            <rect width="28" height="28" fill="white"/>
        </clipPath>
    </defs>
</svg>