<svg width="28" height="28" viewBox="0 0 28 28" fill="none" xmlns="http://www.w3.org/2000/svg">
    <g clip-path="url(#clip0_401_6970)">
        <path d="M26.6108 20.087C27.5009 18.2464 28 16.1816 28 14C28 11.8185 27.5009 9.75364 26.6108 7.91308L14 6.69568L1.38917 7.91308C0.499133 9.75364 0 11.8185 0 14C0 16.1816 0.499133 18.2464 1.38917 20.087L14 21.3044L26.6108 20.087Z" fill="#0052B4"/>
        <path d="M14 28C19.5504 28 24.3463 24.7699 26.6108 20.0869H1.38916C3.65366 24.7699 8.44953 28 14 28Z" fill="#D80027"/>
        <path d="M24.2467 16.7482L23.5072 17.326L23.8282 18.2076L23.0501 17.683L22.3106 18.2607L22.5692 17.3587L21.7913 16.8339L22.7291 16.8012L22.9879 15.8991L23.3089 16.7809L24.2467 16.7482Z" fill="#F0F0F0"/>
        <path d="M22.3531 13.4685L21.8559 14.2644L22.4592 14.9831L21.5486 14.7564L21.0513 15.552L20.9857 14.6159L20.0752 14.3888L20.9454 14.0372L20.88 13.1011L21.4831 13.8201L22.3531 13.4685Z" fill="#F0F0F0"/>
        <path d="M19.452 11.0342L19.257 11.9522L20.0697 12.4214L19.1364 12.5198L18.9413 13.4374L18.5596 12.5803L17.6262 12.6782L18.3237 12.0503L17.942 11.1931L18.7547 11.6622L19.452 11.0342Z" fill="#F0F0F0"/>
        <path d="M15.8935 9.73914L16.0242 10.6684L16.9483 10.8313L16.1049 11.2429L16.2356 12.1721L15.5837 11.4971L14.7401 11.9084L15.1807 11.0797L14.5288 10.4048L15.453 10.5677L15.8935 9.73914Z" fill="#F0F0F0"/>
        <path d="M12.1065 9.73914L12.5471 10.5677L13.4711 10.4047L12.8194 11.0799L13.2598 11.9085L12.4164 11.4971L11.7644 12.172L11.8952 11.2429L11.0518 10.8315L11.9759 10.6684L12.1065 9.73914Z" fill="#F0F0F0"/>
        <path d="M8.5479 11.0342L9.24538 11.6622L10.0579 11.1931L9.67632 12.0506L10.3736 12.6784L9.4404 12.5803L9.05857 13.4374L8.86372 12.5196L7.93042 12.4216L8.74308 11.9523L8.5479 11.0342Z" fill="#F0F0F0"/>
        <path d="M5.64684 13.4685L6.51708 13.8201L7.12006 13.1013L7.05482 14.0376L7.92479 14.3891L7.0143 14.616L6.94873 15.552L6.45162 14.7564L5.54102 14.9833L6.14422 14.2644L5.64684 13.4685Z" fill="#F0F0F0"/>
        <path d="M3.75342 16.7481L4.69142 16.7808L5.01221 15.8992L5.27116 16.8013L6.20889 16.8341L5.4309 17.3588L5.68946 18.2608L4.95009 17.6831L4.17205 18.2077L4.49301 17.326L3.75342 16.7481Z" fill="#F0F0F0"/>
        <path d="M26.6108 7.91306C24.3463 3.23012 19.5504 0 14 0C8.44953 0 3.65366 3.23012 1.38916 7.91306H26.6108Z" fill="#FFDA44"/>
    </g>
    <defs>
        <clipPath id="clip0_401_6970">
            <rect width="28" height="28" fill="white"/>
        </clipPath>
    </defs>
</svg>
